<mxfile host="app.diagrams.net" agent="Mozilla/5.0 (Macintosh; Intel Mac OS X 10_15_7) AppleWebKit/537.36 (KHTML, like Gecko) Chrome/129.0.0.0 Safari/537.36" version="24.7.17">
  <diagram name="Page-1" id="CZ517b9ANIU1MZUylgAc">
    <mxGraphModel dx="1621" dy="627" grid="1" gridSize="10" guides="1" tooltips="1" connect="1" arrows="1" fold="1" page="1" pageScale="1" pageWidth="827" pageHeight="1169" math="0" shadow="0">
      <root>
        <mxCell id="0" />
        <mxCell id="1" parent="0" />
        <mxCell id="wCXjJY3LaD0lOcFTo8qy-1" value="A Register" style="rounded=1;whiteSpace=wrap;html=1;" vertex="1" parent="1">
          <mxGeometry x="140" y="80" width="120" height="60" as="geometry" />
        </mxCell>
        <mxCell id="wCXjJY3LaD0lOcFTo8qy-2" value="ALU" style="rounded=1;whiteSpace=wrap;html=1;" vertex="1" parent="1">
          <mxGeometry x="140" y="190" width="120" height="60" as="geometry" />
        </mxCell>
        <mxCell id="wCXjJY3LaD0lOcFTo8qy-3" value="B Register" style="rounded=1;whiteSpace=wrap;html=1;" vertex="1" parent="1">
          <mxGeometry x="140" y="300" width="120" height="60" as="geometry" />
        </mxCell>
        <mxCell id="wCXjJY3LaD0lOcFTo8qy-4" value="" style="shape=flexArrow;endArrow=classic;html=1;rounded=0;exitX=0.5;exitY=1;exitDx=0;exitDy=0;" edge="1" parent="1" source="wCXjJY3LaD0lOcFTo8qy-1" target="wCXjJY3LaD0lOcFTo8qy-2">
          <mxGeometry width="50" height="50" relative="1" as="geometry">
            <mxPoint x="380" y="340" as="sourcePoint" />
            <mxPoint x="430" y="290" as="targetPoint" />
          </mxGeometry>
        </mxCell>
        <mxCell id="wCXjJY3LaD0lOcFTo8qy-5" value="" style="shape=flexArrow;endArrow=classic;html=1;rounded=0;exitX=0.5;exitY=0;exitDx=0;exitDy=0;entryX=0.5;entryY=1;entryDx=0;entryDy=0;" edge="1" parent="1" source="wCXjJY3LaD0lOcFTo8qy-3" target="wCXjJY3LaD0lOcFTo8qy-2">
          <mxGeometry width="50" height="50" relative="1" as="geometry">
            <mxPoint x="380" y="340" as="sourcePoint" />
            <mxPoint x="430" y="290" as="targetPoint" />
          </mxGeometry>
        </mxCell>
        <mxCell id="wCXjJY3LaD0lOcFTo8qy-8" value="BUS&lt;div&gt;8-Bit&lt;/div&gt;" style="rounded=1;whiteSpace=wrap;html=1;direction=south;" vertex="1" parent="1">
          <mxGeometry x="360" y="80" width="50" height="520" as="geometry" />
        </mxCell>
        <mxCell id="wCXjJY3LaD0lOcFTo8qy-10" value="" style="shape=flexArrow;endArrow=classic;startArrow=classic;html=1;rounded=0;exitX=1;exitY=0.5;exitDx=0;exitDy=0;entryX=0.107;entryY=0.98;entryDx=0;entryDy=0;entryPerimeter=0;" edge="1" parent="1">
          <mxGeometry width="100" height="100" relative="1" as="geometry">
            <mxPoint x="260" y="219.5" as="sourcePoint" />
            <mxPoint x="361" y="219.5" as="targetPoint" />
          </mxGeometry>
        </mxCell>
        <mxCell id="wCXjJY3LaD0lOcFTo8qy-11" value="" style="shape=flexArrow;endArrow=classic;startArrow=classic;html=1;rounded=0;exitX=1;exitY=0.5;exitDx=0;exitDy=0;entryX=0.107;entryY=0.98;entryDx=0;entryDy=0;entryPerimeter=0;" edge="1" parent="1">
          <mxGeometry width="100" height="100" relative="1" as="geometry">
            <mxPoint x="260" y="329.5" as="sourcePoint" />
            <mxPoint x="361" y="329.5" as="targetPoint" />
          </mxGeometry>
        </mxCell>
        <mxCell id="wCXjJY3LaD0lOcFTo8qy-12" value="" style="shape=flexArrow;endArrow=classic;startArrow=classic;html=1;rounded=0;exitX=1;exitY=0.5;exitDx=0;exitDy=0;entryX=0.107;entryY=0.98;entryDx=0;entryDy=0;entryPerimeter=0;" edge="1" parent="1">
          <mxGeometry width="100" height="100" relative="1" as="geometry">
            <mxPoint x="260" y="109.5" as="sourcePoint" />
            <mxPoint x="361" y="109.5" as="targetPoint" />
          </mxGeometry>
        </mxCell>
        <mxCell id="wCXjJY3LaD0lOcFTo8qy-13" value="Programm Counter&lt;div&gt;(PC)&lt;/div&gt;" style="rounded=1;whiteSpace=wrap;html=1;" vertex="1" parent="1">
          <mxGeometry x="140" y="410" width="120" height="60" as="geometry" />
        </mxCell>
        <mxCell id="wCXjJY3LaD0lOcFTo8qy-14" value="" style="shape=flexArrow;endArrow=classic;startArrow=classic;html=1;rounded=0;exitX=1;exitY=0.5;exitDx=0;exitDy=0;entryX=0.107;entryY=0.98;entryDx=0;entryDy=0;entryPerimeter=0;" edge="1" parent="1">
          <mxGeometry width="100" height="100" relative="1" as="geometry">
            <mxPoint x="259" y="439.5" as="sourcePoint" />
            <mxPoint x="360" y="439.5" as="targetPoint" />
          </mxGeometry>
        </mxCell>
        <mxCell id="wCXjJY3LaD0lOcFTo8qy-15" value="Memory Adress Register&lt;div&gt;(MAR)&lt;/div&gt;" style="rounded=1;whiteSpace=wrap;html=1;" vertex="1" parent="1">
          <mxGeometry x="510" y="80" width="120" height="60" as="geometry" />
        </mxCell>
        <mxCell id="wCXjJY3LaD0lOcFTo8qy-16" value="" style="shape=flexArrow;endArrow=classic;startArrow=none;html=1;rounded=0;exitX=1;exitY=0.5;exitDx=0;exitDy=0;entryX=0.107;entryY=0.98;entryDx=0;entryDy=0;entryPerimeter=0;startFill=0;" edge="1" parent="1">
          <mxGeometry width="100" height="100" relative="1" as="geometry">
            <mxPoint x="409" y="109.5" as="sourcePoint" />
            <mxPoint x="510" y="109.5" as="targetPoint" />
          </mxGeometry>
        </mxCell>
        <mxCell id="wCXjJY3LaD0lOcFTo8qy-17" value="RAM" style="rounded=1;whiteSpace=wrap;html=1;" vertex="1" parent="1">
          <mxGeometry x="510" y="190" width="120" height="60" as="geometry" />
        </mxCell>
        <mxCell id="wCXjJY3LaD0lOcFTo8qy-19" value="" style="shape=flexArrow;endArrow=classic;startArrow=none;html=1;rounded=0;exitX=0.5;exitY=1;exitDx=0;exitDy=0;entryX=0.5;entryY=0;entryDx=0;entryDy=0;startFill=0;" edge="1" parent="1" source="wCXjJY3LaD0lOcFTo8qy-15" target="wCXjJY3LaD0lOcFTo8qy-17">
          <mxGeometry width="100" height="100" relative="1" as="geometry">
            <mxPoint x="450" y="310" as="sourcePoint" />
            <mxPoint x="551" y="310" as="targetPoint" />
          </mxGeometry>
        </mxCell>
        <mxCell id="wCXjJY3LaD0lOcFTo8qy-20" value="" style="shape=flexArrow;endArrow=none;startArrow=classic;html=1;rounded=0;exitX=1;exitY=0.5;exitDx=0;exitDy=0;entryX=0.107;entryY=0.98;entryDx=0;entryDy=0;entryPerimeter=0;endFill=0;" edge="1" parent="1">
          <mxGeometry width="100" height="100" relative="1" as="geometry">
            <mxPoint x="410" y="219.5" as="sourcePoint" />
            <mxPoint x="511" y="219.5" as="targetPoint" />
          </mxGeometry>
        </mxCell>
        <mxCell id="wCXjJY3LaD0lOcFTo8qy-21" value="RAM Input Register" style="rounded=1;whiteSpace=wrap;html=1;" vertex="1" parent="1">
          <mxGeometry x="510" y="300" width="120" height="60" as="geometry" />
        </mxCell>
        <mxCell id="wCXjJY3LaD0lOcFTo8qy-22" value="" style="shape=flexArrow;endArrow=classic;startArrow=none;html=1;rounded=0;exitX=1;exitY=0.5;exitDx=0;exitDy=0;entryX=0.107;entryY=0.98;entryDx=0;entryDy=0;entryPerimeter=0;startFill=0;" edge="1" parent="1">
          <mxGeometry width="100" height="100" relative="1" as="geometry">
            <mxPoint x="410" y="329.5" as="sourcePoint" />
            <mxPoint x="511" y="329.5" as="targetPoint" />
          </mxGeometry>
        </mxCell>
        <mxCell id="wCXjJY3LaD0lOcFTo8qy-23" value="" style="shape=flexArrow;endArrow=classic;startArrow=none;html=1;rounded=0;exitX=0.5;exitY=0;exitDx=0;exitDy=0;entryX=0.5;entryY=1;entryDx=0;entryDy=0;startFill=0;" edge="1" parent="1" source="wCXjJY3LaD0lOcFTo8qy-21" target="wCXjJY3LaD0lOcFTo8qy-17">
          <mxGeometry width="100" height="100" relative="1" as="geometry">
            <mxPoint x="420" y="339.5" as="sourcePoint" />
            <mxPoint x="521" y="339.5" as="targetPoint" />
          </mxGeometry>
        </mxCell>
        <mxCell id="wCXjJY3LaD0lOcFTo8qy-24" value="Instruction Register" style="rounded=1;whiteSpace=wrap;html=1;" vertex="1" parent="1">
          <mxGeometry x="510" y="410" width="120" height="60" as="geometry" />
        </mxCell>
        <mxCell id="wCXjJY3LaD0lOcFTo8qy-25" value="" style="shape=flexArrow;endArrow=classic;startArrow=classic;html=1;rounded=0;exitX=1;exitY=0.5;exitDx=0;exitDy=0;entryX=0.107;entryY=0.98;entryDx=0;entryDy=0;entryPerimeter=0;" edge="1" parent="1">
          <mxGeometry width="100" height="100" relative="1" as="geometry">
            <mxPoint x="410" y="439.5" as="sourcePoint" />
            <mxPoint x="511" y="439.5" as="targetPoint" />
          </mxGeometry>
        </mxCell>
        <mxCell id="wCXjJY3LaD0lOcFTo8qy-26" value="Microcode Counter" style="rounded=1;whiteSpace=wrap;html=1;" vertex="1" parent="1">
          <mxGeometry x="140" y="524.5" width="120" height="60" as="geometry" />
        </mxCell>
        <mxCell id="wCXjJY3LaD0lOcFTo8qy-27" value="Clock" style="rounded=1;whiteSpace=wrap;html=1;" vertex="1" parent="1">
          <mxGeometry width="120" height="60" as="geometry" />
        </mxCell>
        <mxCell id="wCXjJY3LaD0lOcFTo8qy-29" value="" style="endArrow=classic;html=1;rounded=0;exitX=1;exitY=0.5;exitDx=0;exitDy=0;entryX=1;entryY=0.5;entryDx=0;entryDy=0;" edge="1" parent="1" source="wCXjJY3LaD0lOcFTo8qy-27" target="wCXjJY3LaD0lOcFTo8qy-44">
          <mxGeometry width="50" height="50" relative="1" as="geometry">
            <mxPoint x="360" y="260" as="sourcePoint" />
            <mxPoint x="680" y="620" as="targetPoint" />
            <Array as="points">
              <mxPoint x="680" y="30" />
              <mxPoint x="680" y="555" />
            </Array>
          </mxGeometry>
        </mxCell>
        <mxCell id="wCXjJY3LaD0lOcFTo8qy-31" value="" style="endArrow=classic;html=1;rounded=0;entryX=1;entryY=0.5;entryDx=0;entryDy=0;" edge="1" parent="1" target="wCXjJY3LaD0lOcFTo8qy-15">
          <mxGeometry width="50" height="50" relative="1" as="geometry">
            <mxPoint x="680" y="110" as="sourcePoint" />
            <mxPoint x="410" y="210" as="targetPoint" />
          </mxGeometry>
        </mxCell>
        <mxCell id="wCXjJY3LaD0lOcFTo8qy-32" value="" style="endArrow=classic;html=1;rounded=0;entryX=1;entryY=0.5;entryDx=0;entryDy=0;" edge="1" parent="1">
          <mxGeometry width="50" height="50" relative="1" as="geometry">
            <mxPoint x="680" y="219.5" as="sourcePoint" />
            <mxPoint x="630" y="219.5" as="targetPoint" />
          </mxGeometry>
        </mxCell>
        <mxCell id="wCXjJY3LaD0lOcFTo8qy-33" value="" style="endArrow=classic;html=1;rounded=0;entryX=1;entryY=0.5;entryDx=0;entryDy=0;" edge="1" parent="1">
          <mxGeometry width="50" height="50" relative="1" as="geometry">
            <mxPoint x="680" y="329.5" as="sourcePoint" />
            <mxPoint x="630" y="329.5" as="targetPoint" />
          </mxGeometry>
        </mxCell>
        <mxCell id="wCXjJY3LaD0lOcFTo8qy-34" value="" style="endArrow=classic;html=1;rounded=0;entryX=1;entryY=0.5;entryDx=0;entryDy=0;" edge="1" parent="1">
          <mxGeometry width="50" height="50" relative="1" as="geometry">
            <mxPoint x="680" y="439.5" as="sourcePoint" />
            <mxPoint x="630" y="439.5" as="targetPoint" />
          </mxGeometry>
        </mxCell>
        <mxCell id="wCXjJY3LaD0lOcFTo8qy-36" value="" style="endArrow=classic;html=1;rounded=0;exitX=0.5;exitY=1;exitDx=0;exitDy=0;entryX=0;entryY=0.5;entryDx=0;entryDy=0;" edge="1" parent="1" source="wCXjJY3LaD0lOcFTo8qy-27" target="wCXjJY3LaD0lOcFTo8qy-26">
          <mxGeometry width="50" height="50" relative="1" as="geometry">
            <mxPoint x="360" y="350" as="sourcePoint" />
            <mxPoint x="60" y="600" as="targetPoint" />
            <Array as="points">
              <mxPoint x="60" y="555" />
            </Array>
          </mxGeometry>
        </mxCell>
        <mxCell id="wCXjJY3LaD0lOcFTo8qy-37" value="" style="endArrow=classic;html=1;rounded=0;" edge="1" parent="1" target="wCXjJY3LaD0lOcFTo8qy-1">
          <mxGeometry width="50" height="50" relative="1" as="geometry">
            <mxPoint x="60" y="110" as="sourcePoint" />
            <mxPoint x="410" y="300" as="targetPoint" />
          </mxGeometry>
        </mxCell>
        <mxCell id="wCXjJY3LaD0lOcFTo8qy-38" value="" style="endArrow=classic;html=1;rounded=0;" edge="1" parent="1">
          <mxGeometry width="50" height="50" relative="1" as="geometry">
            <mxPoint x="60" y="329.5" as="sourcePoint" />
            <mxPoint x="140" y="329.5" as="targetPoint" />
          </mxGeometry>
        </mxCell>
        <mxCell id="wCXjJY3LaD0lOcFTo8qy-39" value="" style="endArrow=classic;html=1;rounded=0;" edge="1" parent="1">
          <mxGeometry width="50" height="50" relative="1" as="geometry">
            <mxPoint x="60" y="439.5" as="sourcePoint" />
            <mxPoint x="140" y="439.5" as="targetPoint" />
          </mxGeometry>
        </mxCell>
        <mxCell id="wCXjJY3LaD0lOcFTo8qy-44" value="Output Register" style="rounded=1;whiteSpace=wrap;html=1;" vertex="1" parent="1">
          <mxGeometry x="510" y="524.5" width="120" height="60" as="geometry" />
        </mxCell>
        <mxCell id="wCXjJY3LaD0lOcFTo8qy-45" value="" style="shape=flexArrow;endArrow=classic;startArrow=classic;html=1;rounded=0;exitX=1;exitY=0.5;exitDx=0;exitDy=0;entryX=0.107;entryY=0.98;entryDx=0;entryDy=0;entryPerimeter=0;" edge="1" parent="1">
          <mxGeometry width="100" height="100" relative="1" as="geometry">
            <mxPoint x="410" y="554" as="sourcePoint" />
            <mxPoint x="511" y="554" as="targetPoint" />
          </mxGeometry>
        </mxCell>
        <mxCell id="wCXjJY3LaD0lOcFTo8qy-46" value="Microcode Counter" style="rounded=1;whiteSpace=wrap;html=1;" vertex="1" parent="1">
          <mxGeometry x="140" y="640" width="120" height="60" as="geometry" />
        </mxCell>
        <mxCell id="wCXjJY3LaD0lOcFTo8qy-48" value="" style="shape=flexArrow;endArrow=classic;html=1;rounded=0;exitX=0.5;exitY=1;exitDx=0;exitDy=0;entryX=0.5;entryY=0;entryDx=0;entryDy=0;" edge="1" parent="1" target="wCXjJY3LaD0lOcFTo8qy-46">
          <mxGeometry width="50" height="50" relative="1" as="geometry">
            <mxPoint x="199.5" y="585" as="sourcePoint" />
            <mxPoint x="199.5" y="635" as="targetPoint" />
          </mxGeometry>
        </mxCell>
        <mxCell id="wCXjJY3LaD0lOcFTo8qy-51" value="Manual Controls and Reset" style="rounded=1;whiteSpace=wrap;html=1;" vertex="1" parent="1">
          <mxGeometry x="510" y="640" width="120" height="60" as="geometry" />
        </mxCell>
        <mxCell id="wCXjJY3LaD0lOcFTo8qy-52" value="" style="shape=flexArrow;endArrow=classic;html=1;rounded=0;exitX=1;exitY=0.5;exitDx=0;exitDy=0;entryX=0;entryY=0.5;entryDx=0;entryDy=0;" edge="1" parent="1" source="wCXjJY3LaD0lOcFTo8qy-46" target="wCXjJY3LaD0lOcFTo8qy-51">
          <mxGeometry width="50" height="50" relative="1" as="geometry">
            <mxPoint x="209.5" y="595" as="sourcePoint" />
            <mxPoint x="210" y="650" as="targetPoint" />
          </mxGeometry>
        </mxCell>
        <mxCell id="wCXjJY3LaD0lOcFTo8qy-54" value="" style="shape=flexArrow;endArrow=classic;html=1;rounded=0;exitX=0.5;exitY=1;exitDx=0;exitDy=0;entryX=0.5;entryY=1;entryDx=0;entryDy=0;" edge="1" parent="1" source="wCXjJY3LaD0lOcFTo8qy-24" target="wCXjJY3LaD0lOcFTo8qy-46">
          <mxGeometry width="50" height="50" relative="1" as="geometry">
            <mxPoint x="270" y="680" as="sourcePoint" />
            <mxPoint x="520" y="680" as="targetPoint" />
            <Array as="points">
              <mxPoint x="570" y="500" />
              <mxPoint x="710" y="500" />
              <mxPoint x="710" y="750" />
              <mxPoint x="200" y="750" />
            </Array>
          </mxGeometry>
        </mxCell>
        <mxCell id="wCXjJY3LaD0lOcFTo8qy-55" value="Flag Register" style="rounded=1;whiteSpace=wrap;html=1;" vertex="1" parent="1">
          <mxGeometry x="-30" y="640" width="120" height="60" as="geometry" />
        </mxCell>
        <mxCell id="wCXjJY3LaD0lOcFTo8qy-56" value="" style="shape=flexArrow;endArrow=classic;html=1;rounded=0;exitX=1;exitY=0.5;exitDx=0;exitDy=0;entryX=0;entryY=0.5;entryDx=0;entryDy=0;" edge="1" parent="1" source="wCXjJY3LaD0lOcFTo8qy-55" target="wCXjJY3LaD0lOcFTo8qy-46">
          <mxGeometry width="50" height="50" relative="1" as="geometry">
            <mxPoint x="209.5" y="595" as="sourcePoint" />
            <mxPoint x="210" y="650" as="targetPoint" />
          </mxGeometry>
        </mxCell>
        <mxCell id="wCXjJY3LaD0lOcFTo8qy-57" value="" style="shape=flexArrow;endArrow=classic;html=1;rounded=0;exitX=0;exitY=0.5;exitDx=0;exitDy=0;entryX=0.5;entryY=0;entryDx=0;entryDy=0;" edge="1" parent="1" source="wCXjJY3LaD0lOcFTo8qy-2" target="wCXjJY3LaD0lOcFTo8qy-55">
          <mxGeometry width="50" height="50" relative="1" as="geometry">
            <mxPoint x="100" y="680" as="sourcePoint" />
            <mxPoint x="150" y="680" as="targetPoint" />
            <Array as="points">
              <mxPoint x="30" y="220" />
            </Array>
          </mxGeometry>
        </mxCell>
      </root>
    </mxGraphModel>
  </diagram>
</mxfile>
